<?xml version="1.0" encoding="us-ascii" standalone="no"?><svg xmlns="http://www.w3.org/2000/svg" xmlns:xlink="http://www.w3.org/1999/xlink" contentStyleType="text/css" height="1452px" preserveAspectRatio="none" style="width:1286px;height:1452px;background:#FFFFFF;" version="1.1" viewBox="0 0 1286 1452" width="1286px" zoomAndPan="magnify"><defs/><g><text fill="#000000" font-family="sans-serif" font-size="14" font-weight="bold" lengthAdjust="spacing" textLength="330" x="476.75" y="27.9951">Authorization Code Flow for Native Apps</text><line style="stroke:#181818;stroke-width:0.5;stroke-dasharray:5.0,5.0;" x1="66" x2="66" y1="118.5938" y2="1371.9801"/><line style="stroke:#181818;stroke-width:0.5;stroke-dasharray:5.0,5.0;" x1="240" x2="240" y1="118.5938" y2="1371.9801"/><line style="stroke:#181818;stroke-width:0.5;stroke-dasharray:5.0,5.0;" x1="580" x2="580" y1="118.5938" y2="1371.9801"/><line style="stroke:#181818;stroke-width:0.5;stroke-dasharray:5.0,5.0;" x1="934.5" x2="934.5" y1="118.5938" y2="1371.9801"/><line style="stroke:#181818;stroke-width:0.5;stroke-dasharray:5.0,5.0;" x1="1186.5" x2="1186.5" y1="118.5938" y2="1371.9801"/><text fill="#000000" font-family="sans-serif" font-size="14" lengthAdjust="spacing" textLength="116" x="5" y="115.292">Resource-owner</text><ellipse cx="66" cy="50.7969" fill="#E2E2F0" rx="8" ry="8" style="stroke:#181818;stroke-width:0.5;"/><path d="M66,58.7969 L66,85.7969 M53,66.7969 L79,66.7969 M66,85.7969 L53,100.7969 M66,85.7969 L79,100.7969 " fill="none" style="stroke:#181818;stroke-width:0.5;"/><text fill="#000000" font-family="sans-serif" font-size="14" lengthAdjust="spacing" textLength="116" x="5" y="1383.9752">Resource-owner</text><ellipse cx="66" cy="1395.7769" fill="#E2E2F0" rx="8" ry="8" style="stroke:#181818;stroke-width:0.5;"/><path d="M66,1403.7769 L66,1430.7769 M53,1411.7769 L79,1411.7769 M66,1430.7769 L53,1445.7769 M66,1430.7769 L79,1445.7769 " fill="none" style="stroke:#181818;stroke-width:0.5;"/><rect fill="#E2E2F0" height="61.7531" rx="2.5" ry="2.5" style="stroke:#181818;stroke-width:0.5;" width="132" x="174" y="55.8407"/><text fill="#000000" font-family="sans-serif" font-size="18" font-weight="bold" lengthAdjust="spacing" textLength="118" x="181" y="79.5487">User-Agent</text><line style="stroke:#181818;stroke-width:1.0;" x1="174" x2="306" y1="88.7938" y2="88.7938"/><text fill="#000000" font-family="monospace" font-size="14" lengthAdjust="spacing" textLength="96" x="192" y="106.7578">Mobile&#160;Phone</text><rect fill="#E2E2F0" height="61.7531" rx="2.5" ry="2.5" style="stroke:#181818;stroke-width:0.5;" width="132" x="174" y="1370.9801"/><text fill="#000000" font-family="sans-serif" font-size="18" font-weight="bold" lengthAdjust="spacing" textLength="118" x="181" y="1394.6881">User-Agent</text><line style="stroke:#181818;stroke-width:1.0;" x1="174" x2="306" y1="1403.9332" y2="1403.9332"/><text fill="#000000" font-family="monospace" font-size="14" lengthAdjust="spacing" textLength="96" x="192" y="1421.8971">Mobile&#160;Phone</text><rect fill="#E2E2F0" height="61.7531" rx="2.5" ry="2.5" style="stroke:#181818;stroke-width:0.5;" width="94" x="533" y="55.8407"/><text fill="#000000" font-family="sans-serif" font-size="18" font-weight="bold" lengthAdjust="spacing" textLength="62" x="549" y="79.5487">Client</text><line style="stroke:#181818;stroke-width:1.0;" x1="533" x2="627" y1="88.7938" y2="88.7938"/><text fill="#000000" font-family="monospace" font-size="14" lengthAdjust="spacing" textLength="80" x="540" y="106.7578">Native&#160;App</text><rect fill="#E2E2F0" height="61.7531" rx="2.5" ry="2.5" style="stroke:#181818;stroke-width:0.5;" width="94" x="533" y="1370.9801"/><text fill="#000000" font-family="sans-serif" font-size="18" font-weight="bold" lengthAdjust="spacing" textLength="62" x="549" y="1394.6881">Client</text><line style="stroke:#181818;stroke-width:1.0;" x1="533" x2="627" y1="1403.9332" y2="1403.9332"/><text fill="#000000" font-family="monospace" font-size="14" lengthAdjust="spacing" textLength="80" x="540" y="1421.8971">Native&#160;App</text><rect fill="#E2E2F0" height="34.9531" rx="2.5" ry="2.5" style="stroke:#181818;stroke-width:0.5;" width="235" x="817.5" y="82.6406"/><text fill="#000000" font-family="sans-serif" font-size="18" font-weight="bold" lengthAdjust="spacing" textLength="221" x="824.5" y="106.3486">Authorization Server</text><rect fill="#E2E2F0" height="34.9531" rx="2.5" ry="2.5" style="stroke:#181818;stroke-width:0.5;" width="235" x="817.5" y="1370.9801"/><text fill="#000000" font-family="sans-serif" font-size="18" font-weight="bold" lengthAdjust="spacing" textLength="221" x="824.5" y="1394.6881">Authorization Server</text><rect fill="#E2E2F0" height="61.7531" rx="2.5" ry="2.5" style="stroke:#181818;stroke-width:0.5;" width="185" x="1094.5" y="55.8407"/><text fill="#000000" font-family="sans-serif" font-size="18" font-weight="bold" lengthAdjust="spacing" textLength="171" x="1101.5" y="79.5487">Resource Server</text><line style="stroke:#181818;stroke-width:1.0;" x1="1094.5" x2="1279.5" y1="88.7938" y2="88.7938"/><text fill="#000000" font-family="monospace" font-size="14" lengthAdjust="spacing" textLength="24" x="1175" y="106.7578">API</text><rect fill="#E2E2F0" height="61.7531" rx="2.5" ry="2.5" style="stroke:#181818;stroke-width:0.5;" width="185" x="1094.5" y="1370.9801"/><text fill="#000000" font-family="sans-serif" font-size="18" font-weight="bold" lengthAdjust="spacing" textLength="171" x="1101.5" y="1394.6881">Resource Server</text><line style="stroke:#181818;stroke-width:1.0;" x1="1094.5" x2="1279.5" y1="1403.9332" y2="1403.9332"/><text fill="#000000" font-family="monospace" font-size="14" lengthAdjust="spacing" textLength="24" x="1175" y="1421.8971">API</text><polygon fill="#181818" points="228,145.7266,238,149.7266,228,153.7266,232,149.7266" style="stroke:#181818;stroke-width:1.0;"/><line style="stroke:#181818;stroke-width:1.0;" x1="66" x2="234" y1="149.7266" y2="149.7266"/><text fill="#000000" font-family="sans-serif" font-size="13" font-weight="bold" lengthAdjust="spacing" textLength="9" x="73" y="144.6606">1</text><text fill="#000000" font-family="sans-serif" font-size="13" lengthAdjust="spacing" textLength="137" x="86" y="144.6606">Utiliza seu dispositivo</text><polygon fill="#181818" points="568,174.8594,578,178.8594,568,182.8594,572,178.8594" style="stroke:#181818;stroke-width:1.0;"/><line style="stroke:#181818;stroke-width:1.0;" x1="240" x2="574" y1="178.8594" y2="178.8594"/><text fill="#000000" font-family="sans-serif" font-size="13" font-weight="bold" lengthAdjust="spacing" textLength="9" x="247" y="173.7935">2</text><text fill="#000000" font-family="sans-serif" font-size="13" lengthAdjust="spacing" textLength="159" x="260" y="173.7935">para acessar a aplica&#231;&#227;o</text><line style="stroke:#181818;stroke-width:1.0;" x1="580" x2="622" y1="207.9922" y2="207.9922"/><line style="stroke:#181818;stroke-width:1.0;" x1="622" x2="622" y1="207.9922" y2="220.9922"/><line style="stroke:#181818;stroke-width:1.0;" x1="581" x2="622" y1="220.9922" y2="220.9922"/><polygon fill="#181818" points="591,216.9922,581,220.9922,591,224.9922,587,220.9922" style="stroke:#181818;stroke-width:1.0;"/><text fill="#000000" font-family="sans-serif" font-size="13" font-weight="bold" lengthAdjust="spacing" textLength="8" x="587" y="202.9263">3</text><text fill="#000000" font-family="sans-serif" font-size="13" lengthAdjust="spacing" textLength="227" x="599" y="202.9263">Gera o Code Verifier (code_verifier)</text><line style="stroke:#181818;stroke-width:1.0;" x1="580" x2="622" y1="250.125" y2="250.125"/><line style="stroke:#181818;stroke-width:1.0;" x1="622" x2="622" y1="250.125" y2="263.125"/><line style="stroke:#181818;stroke-width:1.0;" x1="581" x2="622" y1="263.125" y2="263.125"/><polygon fill="#181818" points="591,259.125,581,263.125,591,267.125,587,263.125" style="stroke:#181818;stroke-width:1.0;"/><text fill="#000000" font-family="sans-serif" font-size="13" font-weight="bold" lengthAdjust="spacing" textLength="9" x="587" y="245.0591">4</text><text fill="#000000" font-family="sans-serif" font-size="13" lengthAdjust="spacing" textLength="298" x="600" y="245.0591">Gera o hash do Code Verifier (code_challenge)</text><polygon fill="#181818" points="251,318.5234,241,322.5234,251,326.5234,247,322.5234" style="stroke:#181818;stroke-width:1.0;"/><line style="stroke:#181818;stroke-width:1.0;" x1="245" x2="579" y1="322.5234" y2="322.5234"/><text fill="#000000" font-family="sans-serif" font-size="13" font-weight="bold" lengthAdjust="spacing" textLength="9" x="257" y="302.3247">5</text><text fill="#000000" font-family="sans-serif" font-size="13" lengthAdjust="spacing" textLength="303" x="270" y="287.1919">"Pede" ao User-Agent para realizar a requisi&#231;&#227;o</text><text fill="#000000" font-family="sans-serif" font-size="13" lengthAdjust="spacing" textLength="211" x="274" y="302.3247">ao Authorization Server incluindo</text><text fill="#000000" font-family="sans-serif" font-size="13" lengthAdjust="spacing" textLength="204" x="274" y="317.4575">o code_challenge, escopos, etc.</text><polygon fill="#181818" points="923,350.6563,933,354.6563,923,358.6563,927,354.6563" style="stroke:#181818;stroke-width:1.0;"/><line style="stroke:#181818;stroke-width:1.0;" x1="240" x2="929" y1="354.6563" y2="354.6563"/><text fill="#000000" font-family="sans-serif" font-size="13" font-weight="bold" lengthAdjust="spacing" textLength="9" x="247" y="349.5903">6</text><text fill="#000000" font-family="sans-serif" font-size="13" lengthAdjust="spacing" textLength="649" x="260" y="349.5903">Inicia requisi&#231;&#227;o do fluxo de autoriza&#231;&#227;o. (&#201; comum nesse passo o User-Agent executar um browser)</text><path d="M126,335.5234 L126,360.5234 L235,360.5234 L235,345.5234 L225,335.5234 L126,335.5234 " fill="#FEFFDD" style="stroke:#181818;stroke-width:0.5;"/><path d="M225,335.5234 L225,345.5234 L235,345.5234 L225,335.5234 " fill="#FEFFDD" style="stroke:#181818;stroke-width:0.5;"/><text fill="#000000" font-family="sans-serif" font-size="13" lengthAdjust="spacing" textLength="88" x="132" y="352.5903">Front-channel</text><path d="M493,370.6563 L493,504.6563 L930,504.6563 L930,380.6563 L920,370.6563 L493,370.6563 " fill="#00FFFF" style="stroke:#181818;stroke-width:0.5;"/><path d="M920,370.6563 L920,380.6563 L930,380.6563 L920,370.6563 " fill="#00FFFF" style="stroke:#181818;stroke-width:0.5;"/><text fill="#000000" font-family="monospace" font-size="13" lengthAdjust="spacing" textLength="376" x="499" y="387.6943">GET&#160;https://authorization-server.com/authorize?</text><text fill="#000000" font-family="monospace" font-size="13" lengthAdjust="spacing" textLength="112" x="531" y="403.2943">response_type=</text><text fill="#000000" font-family="monospace" font-size="13" font-weight="bold" lengthAdjust="spacing" textLength="32" x="643" y="403.2423">code</text><text fill="#000000" font-family="monospace" font-size="13" lengthAdjust="spacing" textLength="8" x="675" y="403.2943">&amp;</text><text fill="#000000" font-family="monospace" font-size="13" lengthAdjust="spacing" textLength="216" x="531" y="418.8943">client_id=&#171;CLIENT_ID_HERE&#187;&amp;</text><text fill="#000000" font-family="monospace" font-size="13" lengthAdjust="spacing" textLength="368" x="531" y="434.4943">redirect_uri=https://example-app.com/redirect&amp;</text><text fill="#000000" font-family="monospace" font-size="13" lengthAdjust="spacing" textLength="200" x="531" y="450.0943">scope=&#171;SCOPES_LIST_HERE&#187;&amp;</text><text fill="#000000" font-family="monospace" font-size="13" lengthAdjust="spacing" textLength="96" x="531" y="465.6943">state=abcde&amp;</text><text fill="#000000" font-family="sans-serif" font-size="13" lengthAdjust="spacing" textLength="253" x="631" y="466.1904">o que fizer mais sentido para o neg&#243;cio</text><text fill="#000000" font-family="monospace" font-size="13" lengthAdjust="spacing" textLength="384" x="531" y="481.2943">code_challenge=base64url(sha256(code_verifier))&amp;</text><text fill="#000000" font-family="monospace" font-size="13" lengthAdjust="spacing" textLength="208" x="531" y="496.8944">code_challenge_method=S256</text><polygon fill="#181818" points="77,527.5892,67,531.5892,77,535.5892,73,531.5892" style="stroke:#181818;stroke-width:1.0;"/><line style="stroke:#181818;stroke-width:1.0;" x1="71" x2="934" y1="531.5892" y2="531.5892"/><text fill="#000000" font-family="sans-serif" font-size="13" font-weight="bold" lengthAdjust="spacing" textLength="9" x="83" y="526.5233">7</text><text fill="#000000" font-family="sans-serif" font-size="13" lengthAdjust="spacing" textLength="181" x="96" y="526.5233">Apresenta uma tela de login</text><polygon fill="#181818" points="923,556.722,933,560.722,923,564.722,927,560.722" style="stroke:#181818;stroke-width:1.0;"/><line style="stroke:#181818;stroke-width:1.0;" x1="66" x2="929" y1="560.722" y2="560.722"/><text fill="#000000" font-family="sans-serif" font-size="13" font-weight="bold" lengthAdjust="spacing" textLength="9" x="73" y="555.6561">8</text><text fill="#000000" font-family="sans-serif" font-size="13" lengthAdjust="spacing" textLength="274" x="86" y="555.6561">Fornece suas credencias para fazer o login</text><polygon fill="#181818" points="77,585.8548,67,589.8548,77,593.8548,73,589.8548" style="stroke:#181818;stroke-width:1.0;"/><line style="stroke:#181818;stroke-width:1.0;" x1="71" x2="934" y1="589.8548" y2="589.8548"/><text fill="#000000" font-family="sans-serif" font-size="13" font-weight="bold" lengthAdjust="spacing" textLength="9" x="83" y="584.7889">9</text><text fill="#000000" font-family="sans-serif" font-size="13" lengthAdjust="spacing" textLength="449" x="96" y="584.7889">Pede o consentimento do usu&#225;rio para logar na aplica&#231;&#227;o em quest&#227;o</text><polygon fill="#181818" points="923,614.9876,933,618.9876,923,622.9876,927,618.9876" style="stroke:#181818;stroke-width:1.0;"/><line style="stroke:#181818;stroke-width:1.0;" x1="66" x2="929" y1="618.9876" y2="618.9876"/><text fill="#000000" font-family="sans-serif" font-size="13" font-weight="bold" lengthAdjust="spacing" textLength="19" x="73" y="613.9217">10</text><text fill="#000000" font-family="sans-serif" font-size="13" lengthAdjust="spacing" textLength="235" x="96" y="613.9217">Confirma seu desejo de fazer o login</text><line style="stroke:#181818;stroke-width:1.0;" x1="935" x2="977" y1="648.1204" y2="648.1204"/><line style="stroke:#181818;stroke-width:1.0;" x1="977" x2="977" y1="648.1204" y2="661.1204"/><line style="stroke:#181818;stroke-width:1.0;" x1="936" x2="977" y1="661.1204" y2="661.1204"/><polygon fill="#181818" points="946,657.1204,936,661.1204,946,665.1204,942,661.1204" style="stroke:#181818;stroke-width:1.0;"/><text fill="#000000" font-family="sans-serif" font-size="13" font-weight="bold" lengthAdjust="spacing" textLength="18" x="942" y="643.0545">11</text><text fill="#000000" font-family="sans-serif" font-size="13" lengthAdjust="spacing" textLength="163" x="964" y="643.0545">Guarda o Code Challenge</text><polygon fill="#181818" points="251,689.2532,241,693.2532,251,697.2532,247,693.2532" style="stroke:#181818;stroke-width:1.0;"/><line style="stroke:#181818;stroke-width:1.0;" x1="245" x2="934" y1="693.2532" y2="693.2532"/><text fill="#000000" font-family="sans-serif" font-size="13" font-weight="bold" lengthAdjust="spacing" textLength="18" x="257" y="688.1873">12</text><text fill="#000000" font-family="sans-serif" font-size="13" lengthAdjust="spacing" textLength="205" x="279" y="688.1873">Eis o Authorization Code gerado</text><path d="M126,674.1204 L126,699.1204 L235,699.1204 L235,684.1204 L225,674.1204 L126,674.1204 " fill="#FEFFDD" style="stroke:#181818;stroke-width:0.5;"/><path d="M225,674.1204 L225,684.1204 L235,684.1204 L225,674.1204 " fill="#FEFFDD" style="stroke:#181818;stroke-width:0.5;"/><text fill="#000000" font-family="sans-serif" font-size="13" lengthAdjust="spacing" textLength="88" x="132" y="691.1873">Front-channel</text><path d="M245,709.2532 L245,781.2532 L610,781.2532 L610,719.2532 L600,709.2532 L245,709.2532 " fill="#00FFFF" style="stroke:#181818;stroke-width:0.5;"/><path d="M600,709.2532 L600,719.2532 L610,719.2532 L600,709.2532 " fill="#00FFFF" style="stroke:#181818;stroke-width:0.5;"/><text fill="#000000" font-family="monospace" font-size="13" lengthAdjust="spacing" textLength="144" x="251" y="726.2912">HTTP/1.1&#160;302&#160;Found</text><text fill="#000000" font-family="monospace" font-size="13" lengthAdjust="spacing" textLength="344" x="251" y="741.8913">Location:&#160;https://example-app.com/redirect?</text><text fill="#000000" font-family="monospace" font-size="13" lengthAdjust="spacing" textLength="168" x="331" y="757.4913">code=&#171;GENERATED_CODE&#187;</text><text fill="#000000" font-family="monospace" font-size="13" lengthAdjust="spacing" textLength="88" x="331" y="773.0913">state=abcde</text><polygon fill="#181818" points="568,818.9189,578,822.9189,568,826.9189,572,822.9189" style="stroke:#181818;stroke-width:1.0;"/><line style="stroke:#181818;stroke-width:1.0;" x1="240" x2="574" y1="822.9189" y2="822.9189"/><text fill="#000000" font-family="sans-serif" font-size="13" font-weight="bold" lengthAdjust="spacing" textLength="17" x="247" y="810.2866">13</text><text fill="#000000" font-family="sans-serif" font-size="13" lengthAdjust="spacing" textLength="205" x="268" y="802.7202">Eis o Authorization Code gerado</text><text fill="#000000" font-family="sans-serif" font-size="13" lengthAdjust="spacing" textLength="151" x="272" y="817.853">no Authorization Server</text><polygon fill="#181818" points="923,893.4502,933,897.4502,923,901.4502,927,897.4502" style="stroke:#181818;stroke-width:1.0;"/><line style="stroke:#181818;stroke-width:1.0;" x1="580" x2="929" y1="897.4502" y2="897.4502"/><text fill="#000000" font-family="sans-serif" font-size="13" font-weight="bold" lengthAdjust="spacing" textLength="18" x="587" y="869.685">14</text><text fill="#000000" font-family="sans-serif" font-size="13" lengthAdjust="spacing" textLength="309" x="609" y="846.9858">Eis o Authorization Code, eu gostaria de troc&#225;-lo</text><text fill="#000000" font-family="sans-serif" font-size="13" lengthAdjust="spacing" textLength="277" x="613" y="862.1186">por um Access Token. Aqui est&#225; tamb&#233;m o</text><text fill="#000000" font-family="sans-serif" font-size="13" lengthAdjust="spacing" textLength="87" x="613" y="877.2514">Code Verifier.</text><text fill="#000000" font-family="sans-serif" font-size="13" lengthAdjust="spacing" textLength="285" x="613" y="892.3842">Perceba que n&#227;o &#233; enviado um client_secret</text><path d="M469,855.6181 L469,880.6181 L575,880.6181 L575,865.6181 L565,855.6181 L469,855.6181 " fill="#FEFFDD" style="stroke:#181818;stroke-width:0.5;"/><path d="M565,855.6181 L565,865.6181 L575,865.6181 L565,855.6181 " fill="#FEFFDD" style="stroke:#181818;stroke-width:0.5;"/><text fill="#000000" font-family="sans-serif" font-size="13" lengthAdjust="spacing" textLength="85" x="475" y="872.685">Back-channel</text><path d="M533,910.4502 L533,1044.4502 L930,1044.4502 L930,920.4502 L920,910.4502 L533,910.4502 " fill="#00FFFF" style="stroke:#181818;stroke-width:0.5;"/><path d="M920,910.4502 L920,920.4502 L930,920.4502 L920,910.4502 " fill="#00FFFF" style="stroke:#181818;stroke-width:0.5;"/><text fill="#000000" font-family="monospace" font-size="13" lengthAdjust="spacing" textLength="344" x="539" y="927.4882">POST&#160;https://authorization-server.com/token</text><text fill="#000000" font-family="monospace" font-size="13" lengthAdjust="spacing" textLength="376" x="539" y="943.0882">Content-Type:&#160;application/x-www-form-urlencoded</text><text fill="#000000" font-family="sans-serif" font-size="13" lengthAdjust="spacing" textLength="4" x="539" y="958.7171">&#160;</text><text fill="#000000" font-family="monospace" font-size="13" lengthAdjust="spacing" textLength="88" x="539" y="973.821">grant_type=</text><text fill="#000000" font-family="monospace" font-size="13" font-weight="bold" lengthAdjust="spacing" textLength="144" x="627" y="973.769">authorization_code</text><text fill="#000000" font-family="monospace" font-size="13" lengthAdjust="spacing" textLength="8" x="771" y="973.821">&amp;</text><text fill="#000000" font-family="monospace" font-size="13" lengthAdjust="spacing" textLength="216" x="539" y="989.421">code=&#171;GENERATED_CODE_HERE&#187;&amp;</text><text fill="#000000" font-family="monospace" font-size="13" lengthAdjust="spacing" textLength="368" x="539" y="1005.021">redirect_uri=https://example-app.com/redirect&amp;</text><text fill="#000000" font-family="monospace" font-size="13" lengthAdjust="spacing" textLength="280" x="539" y="1020.6211">code_verifier=&#171;CODE_VERIFIER_HERE&#187;&amp;</text><text fill="#000000" font-family="monospace" font-size="13" lengthAdjust="spacing" textLength="208" x="539" y="1036.2211">client_id=&#171;CLIENT_ID_HERE&#187;</text><line style="stroke:#181818;stroke-width:1.0;" x1="935" x2="977" y1="1116.3143" y2="1116.3143"/><line style="stroke:#181818;stroke-width:1.0;" x1="977" x2="977" y1="1116.3143" y2="1129.3143"/><line style="stroke:#181818;stroke-width:1.0;" x1="936" x2="977" y1="1129.3143" y2="1129.3143"/><polygon fill="#181818" points="946,1125.3143,936,1129.3143,946,1133.3143,942,1129.3143" style="stroke:#181818;stroke-width:1.0;"/><text fill="#000000" font-family="sans-serif" font-size="13" font-weight="bold" lengthAdjust="spacing" textLength="18" x="942" y="1088.5492">15</text><text fill="#000000" font-family="sans-serif" font-size="13" lengthAdjust="spacing" textLength="162" x="964" y="1065.85">Calcula o Code Challenge</text><text fill="#000000" font-family="sans-serif" font-size="13" lengthAdjust="spacing" textLength="212" x="968" y="1080.9828">a partir do Code Verifier recebido</text><text fill="#000000" font-family="sans-serif" font-size="13" lengthAdjust="spacing" textLength="206" x="968" y="1096.1156">para ver se &#233; o mesmo do in&#237;cio</text><text fill="#000000" font-family="sans-serif" font-size="13" lengthAdjust="spacing" textLength="52" x="968" y="1111.2484">do fluxo</text><polygon fill="#181818" points="591,1157.4471,581,1161.4471,591,1165.4471,587,1161.4471" style="stroke:#181818;stroke-width:1.0;"/><line style="stroke:#181818;stroke-width:1.0;" x1="585" x2="934" y1="1161.4471" y2="1161.4471"/><text fill="#000000" font-family="sans-serif" font-size="13" font-weight="bold" lengthAdjust="spacing" textLength="18" x="597" y="1156.3812">16</text><text fill="#000000" font-family="sans-serif" font-size="13" lengthAdjust="spacing" textLength="291" x="619" y="1156.3812">Aqui est&#225; um Access Token e Refresh Token)</text><path d="M469,1142.3143 L469,1167.3143 L575,1167.3143 L575,1152.3143 L565,1142.3143 L469,1142.3143 " fill="#FEFFDD" style="stroke:#181818;stroke-width:0.5;"/><path d="M565,1142.3143 L565,1152.3143 L575,1152.3143 L565,1142.3143 " fill="#FEFFDD" style="stroke:#181818;stroke-width:0.5;"/><text fill="#000000" font-family="sans-serif" font-size="13" lengthAdjust="spacing" textLength="85" x="475" y="1159.3812">Back-channel</text><path d="M585,1177.4471 L585,1327.4471 L942,1327.4471 L942,1187.4471 L932,1177.4471 L585,1177.4471 " fill="#00FFFF" style="stroke:#181818;stroke-width:0.5;"/><path d="M932,1177.4471 L932,1187.4471 L942,1187.4471 L932,1177.4471 " fill="#00FFFF" style="stroke:#181818;stroke-width:0.5;"/><text fill="#000000" font-family="monospace" font-size="13" lengthAdjust="spacing" textLength="120" x="591" y="1194.4851">HTTP/1.1&#160;200&#160;OK</text><text fill="#000000" font-family="monospace" font-size="13" lengthAdjust="spacing" textLength="240" x="591" y="1210.0852">Content-Type:&#160;application/json</text><text fill="#000000" font-family="monospace" font-size="13" lengthAdjust="spacing" textLength="8" x="591" y="1225.6852">{</text><text fill="#000000" font-family="monospace" font-size="13" lengthAdjust="spacing" textLength="184" x="607" y="1241.2852">"token_type":&#160;"Bearer",</text><text fill="#000000" font-family="monospace" font-size="13" lengthAdjust="spacing" textLength="312" x="607" y="1256.8852">"access_token":&#160;"jasfhasf123477234RAs",</text><text fill="#000000" font-family="monospace" font-size="13" lengthAdjust="spacing" textLength="152" x="607" y="1272.4852">"expires_in":&#160;3600,</text><text fill="#000000" font-family="monospace" font-size="13" lengthAdjust="spacing" textLength="264" x="607" y="1288.0852">"scope":&#160;"&lt;REQUESTED_LIST_HERE&gt;",</text><text fill="#000000" font-family="monospace" font-size="13" lengthAdjust="spacing" textLength="248" x="607" y="1303.6852">"refresh_token":&#160;"HSjafyy12344"</text><text fill="#000000" font-family="monospace" font-size="13" lengthAdjust="spacing" textLength="8" x="591" y="1319.2853">}</text><polygon fill="#181818" points="1175,1349.9801,1185,1353.9801,1175,1357.9801,1179,1353.9801" style="stroke:#181818;stroke-width:1.0;"/><line style="stroke:#181818;stroke-width:1.0;" x1="580" x2="1181" y1="1353.9801" y2="1353.9801"/><text fill="#000000" font-family="sans-serif" font-size="13" font-weight="bold" lengthAdjust="spacing" textLength="18" x="587" y="1348.9142">17</text><text fill="#000000" font-family="sans-serif" font-size="13" lengthAdjust="spacing" textLength="421" x="609" y="1348.9142">Gostaria de consumir os recursos protegidos. Eis o Access Token.</text><!--SRC=[dLRDRkCs4BxhAGOki4Y2jVFRB634ARoEaXXD4zTszj8M0YsDR6ObKY6fE6dH1-XZ13qKU-YfZ-0Nwv2sR2bsaxOwsFgPuSnyyyr76cuIX7Pk9bBndvdXKa17HWZdYPn2B1LSqyi7CiaoxNaiDFIgraSjSnLYNKu5gXem3Rb6vMLC6HxoZ0dZNhJ7I7S_U02jMtgiksTwgjD5VxNQTtB4ANvl8WNMQjvFbHLObirzEmb_uRTAQirBsc86g1vGpRshnSs_h4NYSzkYiCAi5BBTwxfO7ikD57awei-sHgYVhcfjmgtX2SK2ZJb4N6TISqfLUYiuo9ugQm8bm825g3LJG7TPmaCs-sFsk_HivONP1PAPd3Vb4oeUSugv5T9ZyB1utDxaC65w0j5cnt32aWJ569UUfGfgFOoGUYfXrRDviWgPhSrcg_0-vvgxT7yKrdWJpC15cEHSHDP6GZNsUq0TIWA8RapOyAeGbThOXAwWJbM3sjBY97-a6mJR4XlQVMd0rkmtYfNcAGX25obvhILKwi5737D3fP3HICcfjYWAQH0IZ0c4SoM5gLEkGc2o-W0ohX3iAtQVCqUF2ty84sCotTpTPMKewjgPDYYXvGVyXgXalO0kXSGIeJ4mJncsTdOiIZixxqeMeUD_mAFMoKddgkjV3uFkMN3fz_tJqtULbIAkC3H1hdYhI0OVMPebMAT6knmAexAZxGFIueFEJSyV15VTmN33yjemWoqs2YEaruJdVOuGKpKAKiOrKLuOJcrnN964_NZsLyZbgenA-riZfl7uA5V9bfwmWw-FNt1wku90nJL8aN2CMWFo8YCK4TWEULwvDGjIDqaa265AZL6l6HXCcALC8iTSB0UumhPpgGII1kYST2qal50G-_IyhfZPUkN2VsD0Ep-ExS8XajAFeskkyzcpuWk0Q06YdwWCFc1gGTN6Yi36t3fIn5ob2tsXkkxS0BoQLMM1YvofQ2aedGBIZTWj1C6dtifDUyIOb2QIRuoDukE9cvlLUA-cvd8uxEtkD_RXSE-0SCz5j6ZwbGnTe2QynUFoACqlInOYyuL_xVVRG_yiwDoS4PNNx4fyhh1eNQhVG834JMmMGA_GrqeF_cav4i8SnfBoKjoHr2WPpfxhYOsGIITMxT3k632Kdr4qe4s229Olps1OEffzIS7QLZI_GIzwI9lQYBc95PPeio-0ue4pIykq41YDn7PJxkT75dx-BohOkndy2naqDlb5EuZGXcBNXoH-JOks7GRhiFjOdqwdTJg2f7KI2Pf1AcfE3-SuLhHp5vfP2HLK5NGZ7Lx8s_zIpefUMMcswtxo-ztphjz_4U0r2NzDmgh3pv8mJzQ7rsx0uCupQdt7funnn1r9dUxOXMbF9098I56dJfgucFr9KaqsnRQwbeaRX1BVNd0H4FeOaz9Evi_RhzDegGfsFZRemS7U7jny-oP7xhGiYFJBShvhZb-E6ZKwpdn4fkYG-XvM1imb7invI2PtJCTqNeht3mwFFdoWdtvRLnpmCQFMwu1RyyFZlRtoHxTxscLE-lxtj_x0ScorXLRMKNE8Lf4l1tSiVdgoWOzgXU6l5KOiptQSrBia3dP_oLDgkTIsoRdIT9CfyXbJktMZa9coOFmD]--></g></svg>