<?xml version="1.0" encoding="us-ascii" standalone="no"?><svg xmlns="http://www.w3.org/2000/svg" xmlns:xlink="http://www.w3.org/1999/xlink" contentStyleType="text/css" height="1452px" preserveAspectRatio="none" style="width:1270px;height:1452px;background:#FFFFFF;" version="1.1" viewBox="0 0 1270 1452" width="1270px" zoomAndPan="magnify"><defs/><g><text fill="#000000" font-family="sans-serif" font-size="14" font-weight="bold" lengthAdjust="spacing" textLength="434" x="416.75" y="27.9951">Authorization Code Flow for Single-Page Applications</text><line style="stroke:#181818;stroke-width:0.5;stroke-dasharray:5.0,5.0;" x1="66" x2="66" y1="118.5938" y2="1371.9801"/><line style="stroke:#181818;stroke-width:0.5;stroke-dasharray:5.0,5.0;" x1="224" x2="224" y1="118.5938" y2="1371.9801"/><line style="stroke:#181818;stroke-width:0.5;stroke-dasharray:5.0,5.0;" x1="564" x2="564" y1="118.5938" y2="1371.9801"/><line style="stroke:#181818;stroke-width:0.5;stroke-dasharray:5.0,5.0;" x1="918.5" x2="918.5" y1="118.5938" y2="1371.9801"/><line style="stroke:#181818;stroke-width:0.5;stroke-dasharray:5.0,5.0;" x1="1170.5" x2="1170.5" y1="118.5938" y2="1371.9801"/><text fill="#000000" font-family="sans-serif" font-size="14" lengthAdjust="spacing" textLength="116" x="5" y="115.292">Resource-owner</text><ellipse cx="66" cy="50.7969" fill="#E2E2F0" rx="8" ry="8" style="stroke:#181818;stroke-width:0.5;"/><path d="M66,58.7969 L66,85.7969 M53,66.7969 L79,66.7969 M66,85.7969 L53,100.7969 M66,85.7969 L79,100.7969 " fill="none" style="stroke:#181818;stroke-width:0.5;"/><text fill="#000000" font-family="sans-serif" font-size="14" lengthAdjust="spacing" textLength="116" x="5" y="1383.9752">Resource-owner</text><ellipse cx="66" cy="1395.7769" fill="#E2E2F0" rx="8" ry="8" style="stroke:#181818;stroke-width:0.5;"/><path d="M66,1403.7769 L66,1430.7769 M53,1411.7769 L79,1411.7769 M66,1430.7769 L53,1445.7769 M66,1430.7769 L79,1445.7769 " fill="none" style="stroke:#181818;stroke-width:0.5;"/><rect fill="#E2E2F0" height="61.7531" rx="2.5" ry="2.5" style="stroke:#181818;stroke-width:0.5;" width="132" x="158" y="55.8407"/><text fill="#000000" font-family="sans-serif" font-size="18" font-weight="bold" lengthAdjust="spacing" textLength="118" x="165" y="79.5487">User-Agent</text><line style="stroke:#181818;stroke-width:1.0;" x1="158" x2="290" y1="88.7938" y2="88.7938"/><text fill="#000000" font-family="monospace" font-size="14" lengthAdjust="spacing" textLength="56" x="196" y="106.7578">Browser</text><rect fill="#E2E2F0" height="61.7531" rx="2.5" ry="2.5" style="stroke:#181818;stroke-width:0.5;" width="132" x="158" y="1370.9801"/><text fill="#000000" font-family="sans-serif" font-size="18" font-weight="bold" lengthAdjust="spacing" textLength="118" x="165" y="1394.6881">User-Agent</text><line style="stroke:#181818;stroke-width:1.0;" x1="158" x2="290" y1="1403.9332" y2="1403.9332"/><text fill="#000000" font-family="monospace" font-size="14" lengthAdjust="spacing" textLength="56" x="196" y="1421.8971">Browser</text><rect fill="#E2E2F0" height="61.7531" rx="2.5" ry="2.5" style="stroke:#181818;stroke-width:0.5;" width="126" x="501" y="55.8407"/><text fill="#000000" font-family="sans-serif" font-size="18" font-weight="bold" lengthAdjust="spacing" textLength="62" x="533" y="79.5487">Client</text><line style="stroke:#181818;stroke-width:1.0;" x1="501" x2="627" y1="88.7938" y2="88.7938"/><text fill="#000000" font-family="monospace" font-size="14" lengthAdjust="spacing" textLength="112" x="508" y="106.7578">JavaScript&#160;App</text><rect fill="#E2E2F0" height="61.7531" rx="2.5" ry="2.5" style="stroke:#181818;stroke-width:0.5;" width="126" x="501" y="1370.9801"/><text fill="#000000" font-family="sans-serif" font-size="18" font-weight="bold" lengthAdjust="spacing" textLength="62" x="533" y="1394.6881">Client</text><line style="stroke:#181818;stroke-width:1.0;" x1="501" x2="627" y1="1403.9332" y2="1403.9332"/><text fill="#000000" font-family="monospace" font-size="14" lengthAdjust="spacing" textLength="112" x="508" y="1421.8971">JavaScript&#160;App</text><rect fill="#E2E2F0" height="34.9531" rx="2.5" ry="2.5" style="stroke:#181818;stroke-width:0.5;" width="235" x="801.5" y="82.6406"/><text fill="#000000" font-family="sans-serif" font-size="18" font-weight="bold" lengthAdjust="spacing" textLength="221" x="808.5" y="106.3486">Authorization Server</text><rect fill="#E2E2F0" height="34.9531" rx="2.5" ry="2.5" style="stroke:#181818;stroke-width:0.5;" width="235" x="801.5" y="1370.9801"/><text fill="#000000" font-family="sans-serif" font-size="18" font-weight="bold" lengthAdjust="spacing" textLength="221" x="808.5" y="1394.6881">Authorization Server</text><rect fill="#E2E2F0" height="61.7531" rx="2.5" ry="2.5" style="stroke:#181818;stroke-width:0.5;" width="185" x="1078.5" y="55.8407"/><text fill="#000000" font-family="sans-serif" font-size="18" font-weight="bold" lengthAdjust="spacing" textLength="171" x="1085.5" y="79.5487">Resource Server</text><line style="stroke:#181818;stroke-width:1.0;" x1="1078.5" x2="1263.5" y1="88.7938" y2="88.7938"/><text fill="#000000" font-family="monospace" font-size="14" lengthAdjust="spacing" textLength="24" x="1159" y="106.7578">API</text><rect fill="#E2E2F0" height="61.7531" rx="2.5" ry="2.5" style="stroke:#181818;stroke-width:0.5;" width="185" x="1078.5" y="1370.9801"/><text fill="#000000" font-family="sans-serif" font-size="18" font-weight="bold" lengthAdjust="spacing" textLength="171" x="1085.5" y="1394.6881">Resource Server</text><line style="stroke:#181818;stroke-width:1.0;" x1="1078.5" x2="1263.5" y1="1403.9332" y2="1403.9332"/><text fill="#000000" font-family="monospace" font-size="14" lengthAdjust="spacing" textLength="24" x="1159" y="1421.8971">API</text><polygon fill="#181818" points="212,145.7266,222,149.7266,212,153.7266,216,149.7266" style="stroke:#181818;stroke-width:1.0;"/><line style="stroke:#181818;stroke-width:1.0;" x1="66" x2="218" y1="149.7266" y2="149.7266"/><text fill="#000000" font-family="sans-serif" font-size="13" font-weight="bold" lengthAdjust="spacing" textLength="9" x="73" y="144.6606">1</text><text fill="#000000" font-family="sans-serif" font-size="13" lengthAdjust="spacing" textLength="121" x="86" y="144.6606">Utiliza seu Browser</text><polygon fill="#181818" points="552,174.8594,562,178.8594,552,182.8594,556,178.8594" style="stroke:#181818;stroke-width:1.0;"/><line style="stroke:#181818;stroke-width:1.0;" x1="224" x2="558" y1="178.8594" y2="178.8594"/><text fill="#000000" font-family="sans-serif" font-size="13" font-weight="bold" lengthAdjust="spacing" textLength="9" x="231" y="173.7935">2</text><text fill="#000000" font-family="sans-serif" font-size="13" lengthAdjust="spacing" textLength="159" x="244" y="173.7935">para acessar a aplica&#231;&#227;o</text><line style="stroke:#181818;stroke-width:1.0;" x1="564" x2="606" y1="207.9922" y2="207.9922"/><line style="stroke:#181818;stroke-width:1.0;" x1="606" x2="606" y1="207.9922" y2="220.9922"/><line style="stroke:#181818;stroke-width:1.0;" x1="565" x2="606" y1="220.9922" y2="220.9922"/><polygon fill="#181818" points="575,216.9922,565,220.9922,575,224.9922,571,220.9922" style="stroke:#181818;stroke-width:1.0;"/><text fill="#000000" font-family="sans-serif" font-size="13" font-weight="bold" lengthAdjust="spacing" textLength="8" x="571" y="202.9263">3</text><text fill="#000000" font-family="sans-serif" font-size="13" lengthAdjust="spacing" textLength="227" x="583" y="202.9263">Gera o Code Verifier (code_verifier)</text><line style="stroke:#181818;stroke-width:1.0;" x1="564" x2="606" y1="250.125" y2="250.125"/><line style="stroke:#181818;stroke-width:1.0;" x1="606" x2="606" y1="250.125" y2="263.125"/><line style="stroke:#181818;stroke-width:1.0;" x1="565" x2="606" y1="263.125" y2="263.125"/><polygon fill="#181818" points="575,259.125,565,263.125,575,267.125,571,263.125" style="stroke:#181818;stroke-width:1.0;"/><text fill="#000000" font-family="sans-serif" font-size="13" font-weight="bold" lengthAdjust="spacing" textLength="9" x="571" y="245.0591">4</text><text fill="#000000" font-family="sans-serif" font-size="13" lengthAdjust="spacing" textLength="298" x="584" y="245.0591">Gera o hash do Code Verifier (code_challenge)</text><polygon fill="#181818" points="235,318.5234,225,322.5234,235,326.5234,231,322.5234" style="stroke:#181818;stroke-width:1.0;"/><line style="stroke:#181818;stroke-width:1.0;" x1="229" x2="563" y1="322.5234" y2="322.5234"/><text fill="#000000" font-family="sans-serif" font-size="13" font-weight="bold" lengthAdjust="spacing" textLength="9" x="241" y="302.3247">5</text><text fill="#000000" font-family="sans-serif" font-size="13" lengthAdjust="spacing" textLength="303" x="254" y="287.1919">"Pede" ao User-Agent para realizar a requisi&#231;&#227;o</text><text fill="#000000" font-family="sans-serif" font-size="13" lengthAdjust="spacing" textLength="211" x="258" y="302.3247">ao Authorization Server incluindo</text><text fill="#000000" font-family="sans-serif" font-size="13" lengthAdjust="spacing" textLength="204" x="258" y="317.4575">o code_challenge, escopos, etc.</text><polygon fill="#181818" points="907,350.6563,917,354.6563,907,358.6563,911,354.6563" style="stroke:#181818;stroke-width:1.0;"/><line style="stroke:#181818;stroke-width:1.0;" x1="224" x2="913" y1="354.6563" y2="354.6563"/><text fill="#000000" font-family="sans-serif" font-size="13" font-weight="bold" lengthAdjust="spacing" textLength="9" x="231" y="349.5903">6</text><text fill="#000000" font-family="sans-serif" font-size="13" lengthAdjust="spacing" textLength="256" x="244" y="349.5903">Inicia requisi&#231;&#227;o do fluxo de autoriza&#231;&#227;o</text><path d="M110,335.5234 L110,360.5234 L219,360.5234 L219,345.5234 L209,335.5234 L110,335.5234 " fill="#FEFFDD" style="stroke:#181818;stroke-width:0.5;"/><path d="M209,335.5234 L209,345.5234 L219,345.5234 L209,335.5234 " fill="#FEFFDD" style="stroke:#181818;stroke-width:0.5;"/><text fill="#000000" font-family="sans-serif" font-size="13" lengthAdjust="spacing" textLength="88" x="116" y="352.5903">Front-channel</text><path d="M461,370.6563 L461,504.6563 L914,504.6563 L914,380.6563 L904,370.6563 L461,370.6563 " fill="#00FFFF" style="stroke:#181818;stroke-width:0.5;"/><path d="M904,370.6563 L904,380.6563 L914,380.6563 L904,370.6563 " fill="#00FFFF" style="stroke:#181818;stroke-width:0.5;"/><text fill="#000000" font-family="monospace" font-size="13" lengthAdjust="spacing" textLength="376" x="467" y="387.6943">GET&#160;https://authorization-server.com/authorize?</text><text fill="#000000" font-family="monospace" font-size="13" lengthAdjust="spacing" textLength="112" x="499" y="403.2943">response_type=</text><text fill="#000000" font-family="monospace" font-size="13" font-weight="bold" lengthAdjust="spacing" textLength="32" x="611" y="403.2423">code</text><text fill="#000000" font-family="monospace" font-size="13" lengthAdjust="spacing" textLength="8" x="643" y="403.2943">&amp;</text><text fill="#000000" font-family="monospace" font-size="13" lengthAdjust="spacing" textLength="216" x="499" y="418.8943">client_id=&#171;CLIENT_ID_HERE&#187;&amp;</text><text fill="#000000" font-family="monospace" font-size="13" lengthAdjust="spacing" textLength="368" x="499" y="434.4943">redirect_uri=https://example-app.com/redirect&amp;</text><text fill="#000000" font-family="monospace" font-size="13" lengthAdjust="spacing" textLength="200" x="499" y="450.0943">scope=&#171;SCOPES_LIST_HERE&#187;&amp;</text><text fill="#000000" font-family="monospace" font-size="13" lengthAdjust="spacing" textLength="96" x="499" y="465.6943">state=abcde&amp;</text><text fill="#000000" font-family="sans-serif" font-size="13" lengthAdjust="spacing" textLength="253" x="599" y="466.1904">o que fizer mais sentido para o neg&#243;cio</text><text fill="#000000" font-family="monospace" font-size="13" lengthAdjust="spacing" textLength="400" x="499" y="481.2943">code_challenge=&#171;base64url(sha256(code_verifier))&#187;&amp;</text><text fill="#000000" font-family="monospace" font-size="13" lengthAdjust="spacing" textLength="208" x="499" y="496.8944">code_challenge_method=S256</text><polygon fill="#181818" points="77,527.5892,67,531.5892,77,535.5892,73,531.5892" style="stroke:#181818;stroke-width:1.0;"/><line style="stroke:#181818;stroke-width:1.0;" x1="71" x2="918" y1="531.5892" y2="531.5892"/><text fill="#000000" font-family="sans-serif" font-size="13" font-weight="bold" lengthAdjust="spacing" textLength="9" x="83" y="526.5233">7</text><text fill="#000000" font-family="sans-serif" font-size="13" lengthAdjust="spacing" textLength="181" x="96" y="526.5233">Apresenta uma tela de login</text><polygon fill="#181818" points="907,556.722,917,560.722,907,564.722,911,560.722" style="stroke:#181818;stroke-width:1.0;"/><line style="stroke:#181818;stroke-width:1.0;" x1="66" x2="913" y1="560.722" y2="560.722"/><text fill="#000000" font-family="sans-serif" font-size="13" font-weight="bold" lengthAdjust="spacing" textLength="9" x="73" y="555.6561">8</text><text fill="#000000" font-family="sans-serif" font-size="13" lengthAdjust="spacing" textLength="274" x="86" y="555.6561">Fornece suas credencias para fazer o login</text><polygon fill="#181818" points="77,585.8548,67,589.8548,77,593.8548,73,589.8548" style="stroke:#181818;stroke-width:1.0;"/><line style="stroke:#181818;stroke-width:1.0;" x1="71" x2="918" y1="589.8548" y2="589.8548"/><text fill="#000000" font-family="sans-serif" font-size="13" font-weight="bold" lengthAdjust="spacing" textLength="9" x="83" y="584.7889">9</text><text fill="#000000" font-family="sans-serif" font-size="13" lengthAdjust="spacing" textLength="449" x="96" y="584.7889">Pede o consentimento do usu&#225;rio para logar na aplica&#231;&#227;o em quest&#227;o</text><polygon fill="#181818" points="907,614.9876,917,618.9876,907,622.9876,911,618.9876" style="stroke:#181818;stroke-width:1.0;"/><line style="stroke:#181818;stroke-width:1.0;" x1="66" x2="913" y1="618.9876" y2="618.9876"/><text fill="#000000" font-family="sans-serif" font-size="13" font-weight="bold" lengthAdjust="spacing" textLength="19" x="73" y="613.9217">10</text><text fill="#000000" font-family="sans-serif" font-size="13" lengthAdjust="spacing" textLength="235" x="96" y="613.9217">Confirma seu desejo de fazer o login</text><line style="stroke:#181818;stroke-width:1.0;" x1="919" x2="961" y1="648.1204" y2="648.1204"/><line style="stroke:#181818;stroke-width:1.0;" x1="961" x2="961" y1="648.1204" y2="661.1204"/><line style="stroke:#181818;stroke-width:1.0;" x1="920" x2="961" y1="661.1204" y2="661.1204"/><polygon fill="#181818" points="930,657.1204,920,661.1204,930,665.1204,926,661.1204" style="stroke:#181818;stroke-width:1.0;"/><text fill="#000000" font-family="sans-serif" font-size="13" font-weight="bold" lengthAdjust="spacing" textLength="18" x="926" y="643.0545">11</text><text fill="#000000" font-family="sans-serif" font-size="13" lengthAdjust="spacing" textLength="163" x="948" y="643.0545">Guarda o Code Challenge</text><polygon fill="#181818" points="235,689.2532,225,693.2532,235,697.2532,231,693.2532" style="stroke:#181818;stroke-width:1.0;"/><line style="stroke:#181818;stroke-width:1.0;" x1="229" x2="918" y1="693.2532" y2="693.2532"/><text fill="#000000" font-family="sans-serif" font-size="13" font-weight="bold" lengthAdjust="spacing" textLength="18" x="241" y="688.1873">12</text><text fill="#000000" font-family="sans-serif" font-size="13" lengthAdjust="spacing" textLength="205" x="263" y="688.1873">Eis o Authorization Code gerado</text><path d="M110,674.1204 L110,699.1204 L219,699.1204 L219,684.1204 L209,674.1204 L110,674.1204 " fill="#FEFFDD" style="stroke:#181818;stroke-width:0.5;"/><path d="M209,674.1204 L209,684.1204 L219,684.1204 L209,674.1204 " fill="#FEFFDD" style="stroke:#181818;stroke-width:0.5;"/><text fill="#000000" font-family="sans-serif" font-size="13" lengthAdjust="spacing" textLength="88" x="116" y="691.1873">Front-channel</text><path d="M229,709.2532 L229,781.2532 L594,781.2532 L594,719.2532 L584,709.2532 L229,709.2532 " fill="#00FFFF" style="stroke:#181818;stroke-width:0.5;"/><path d="M584,709.2532 L584,719.2532 L594,719.2532 L584,709.2532 " fill="#00FFFF" style="stroke:#181818;stroke-width:0.5;"/><text fill="#000000" font-family="monospace" font-size="13" lengthAdjust="spacing" textLength="144" x="235" y="726.2912">HTTP/1.1&#160;302&#160;Found</text><text fill="#000000" font-family="monospace" font-size="13" lengthAdjust="spacing" textLength="344" x="235" y="741.8913">Location:&#160;https://example-app.com/redirect?</text><text fill="#000000" font-family="monospace" font-size="13" lengthAdjust="spacing" textLength="168" x="315" y="757.4913">code=&#171;GENERATED_CODE&#187;</text><text fill="#000000" font-family="monospace" font-size="13" lengthAdjust="spacing" textLength="88" x="315" y="773.0913">state=abcde</text><polygon fill="#181818" points="552,818.9189,562,822.9189,552,826.9189,556,822.9189" style="stroke:#181818;stroke-width:1.0;"/><line style="stroke:#181818;stroke-width:1.0;" x1="224" x2="558" y1="822.9189" y2="822.9189"/><text fill="#000000" font-family="sans-serif" font-size="13" font-weight="bold" lengthAdjust="spacing" textLength="17" x="231" y="810.2866">13</text><text fill="#000000" font-family="sans-serif" font-size="13" lengthAdjust="spacing" textLength="205" x="252" y="802.7202">Eis o Authorization Code gerado</text><text fill="#000000" font-family="sans-serif" font-size="13" lengthAdjust="spacing" textLength="151" x="256" y="817.853">no Authorization Server</text><polygon fill="#181818" points="907,893.4502,917,897.4502,907,901.4502,911,897.4502" style="stroke:#181818;stroke-width:1.0;"/><line style="stroke:#181818;stroke-width:1.0;" x1="564" x2="913" y1="897.4502" y2="897.4502"/><text fill="#000000" font-family="sans-serif" font-size="13" font-weight="bold" lengthAdjust="spacing" textLength="18" x="571" y="869.685">14</text><text fill="#000000" font-family="sans-serif" font-size="13" lengthAdjust="spacing" textLength="309" x="593" y="846.9858">Eis o Authorization Code, eu gostaria de troc&#225;-lo</text><text fill="#000000" font-family="sans-serif" font-size="13" lengthAdjust="spacing" textLength="277" x="597" y="862.1186">por um Access Token. Aqui est&#225; tamb&#233;m o</text><text fill="#000000" font-family="sans-serif" font-size="13" lengthAdjust="spacing" textLength="87" x="597" y="877.2514">Code Verifier.</text><text fill="#000000" font-family="sans-serif" font-size="13" lengthAdjust="spacing" textLength="285" x="597" y="892.3842">Perceba que n&#227;o &#233; enviado um client_secret</text><path d="M453,855.6181 L453,880.6181 L559,880.6181 L559,865.6181 L549,855.6181 L453,855.6181 " fill="#FEFFDD" style="stroke:#181818;stroke-width:0.5;"/><path d="M549,855.6181 L549,865.6181 L559,865.6181 L549,855.6181 " fill="#FEFFDD" style="stroke:#181818;stroke-width:0.5;"/><text fill="#000000" font-family="sans-serif" font-size="13" lengthAdjust="spacing" textLength="85" x="459" y="872.685">Back-channel</text><path d="M517,910.4502 L517,1044.4502 L914,1044.4502 L914,920.4502 L904,910.4502 L517,910.4502 " fill="#00FFFF" style="stroke:#181818;stroke-width:0.5;"/><path d="M904,910.4502 L904,920.4502 L914,920.4502 L904,910.4502 " fill="#00FFFF" style="stroke:#181818;stroke-width:0.5;"/><text fill="#000000" font-family="monospace" font-size="13" lengthAdjust="spacing" textLength="344" x="523" y="927.4882">POST&#160;https://authorization-server.com/token</text><text fill="#000000" font-family="monospace" font-size="13" lengthAdjust="spacing" textLength="376" x="523" y="943.0882">Content-Type:&#160;application/x-www-form-urlencoded</text><text fill="#000000" font-family="sans-serif" font-size="13" lengthAdjust="spacing" textLength="4" x="523" y="958.7171">&#160;</text><text fill="#000000" font-family="monospace" font-size="13" lengthAdjust="spacing" textLength="88" x="523" y="973.821">grant_type=</text><text fill="#000000" font-family="monospace" font-size="13" font-weight="bold" lengthAdjust="spacing" textLength="144" x="611" y="973.769">authorization_code</text><text fill="#000000" font-family="monospace" font-size="13" lengthAdjust="spacing" textLength="8" x="755" y="973.821">&amp;</text><text fill="#000000" font-family="monospace" font-size="13" lengthAdjust="spacing" textLength="216" x="523" y="989.421">code=&#171;GENERATED_CODE_HERE&#187;&amp;</text><text fill="#000000" font-family="monospace" font-size="13" lengthAdjust="spacing" textLength="368" x="523" y="1005.021">redirect_uri=https://example-app.com/redirect&amp;</text><text fill="#000000" font-family="monospace" font-size="13" lengthAdjust="spacing" textLength="280" x="523" y="1020.6211">code_verifier=&#171;CODE_VERIFIER_HERE&#187;&amp;</text><text fill="#000000" font-family="monospace" font-size="13" lengthAdjust="spacing" textLength="208" x="523" y="1036.2211">client_id=&#171;CLIENT_ID_HERE&#187;</text><line style="stroke:#181818;stroke-width:1.0;" x1="919" x2="961" y1="1116.3143" y2="1116.3143"/><line style="stroke:#181818;stroke-width:1.0;" x1="961" x2="961" y1="1116.3143" y2="1129.3143"/><line style="stroke:#181818;stroke-width:1.0;" x1="920" x2="961" y1="1129.3143" y2="1129.3143"/><polygon fill="#181818" points="930,1125.3143,920,1129.3143,930,1133.3143,926,1129.3143" style="stroke:#181818;stroke-width:1.0;"/><text fill="#000000" font-family="sans-serif" font-size="13" font-weight="bold" lengthAdjust="spacing" textLength="18" x="926" y="1088.5492">15</text><text fill="#000000" font-family="sans-serif" font-size="13" lengthAdjust="spacing" textLength="162" x="948" y="1065.85">Calcula o Code Challenge</text><text fill="#000000" font-family="sans-serif" font-size="13" lengthAdjust="spacing" textLength="212" x="952" y="1080.9828">a partir do Code Verifier recebido</text><text fill="#000000" font-family="sans-serif" font-size="13" lengthAdjust="spacing" textLength="206" x="952" y="1096.1156">para ver se &#233; o mesmo do in&#237;cio</text><text fill="#000000" font-family="sans-serif" font-size="13" lengthAdjust="spacing" textLength="52" x="952" y="1111.2484">do fluxo</text><polygon fill="#181818" points="575,1157.4471,565,1161.4471,575,1165.4471,571,1161.4471" style="stroke:#181818;stroke-width:1.0;"/><line style="stroke:#181818;stroke-width:1.0;" x1="569" x2="918" y1="1161.4471" y2="1161.4471"/><text fill="#000000" font-family="sans-serif" font-size="13" font-weight="bold" lengthAdjust="spacing" textLength="18" x="581" y="1156.3812">16</text><text fill="#000000" font-family="sans-serif" font-size="13" lengthAdjust="spacing" textLength="286" x="603" y="1156.3812">Aqui est&#225; um Access Token e Refresh Token</text><path d="M453,1142.3143 L453,1167.3143 L559,1167.3143 L559,1152.3143 L549,1142.3143 L453,1142.3143 " fill="#FEFFDD" style="stroke:#181818;stroke-width:0.5;"/><path d="M549,1142.3143 L549,1152.3143 L559,1152.3143 L549,1142.3143 " fill="#FEFFDD" style="stroke:#181818;stroke-width:0.5;"/><text fill="#000000" font-family="sans-serif" font-size="13" lengthAdjust="spacing" textLength="85" x="459" y="1159.3812">Back-channel</text><path d="M569,1177.4471 L569,1327.4471 L926,1327.4471 L926,1187.4471 L916,1177.4471 L569,1177.4471 " fill="#00FFFF" style="stroke:#181818;stroke-width:0.5;"/><path d="M916,1177.4471 L916,1187.4471 L926,1187.4471 L916,1177.4471 " fill="#00FFFF" style="stroke:#181818;stroke-width:0.5;"/><text fill="#000000" font-family="monospace" font-size="13" lengthAdjust="spacing" textLength="120" x="575" y="1194.4851">HTTP/1.1&#160;200&#160;OK</text><text fill="#000000" font-family="monospace" font-size="13" lengthAdjust="spacing" textLength="240" x="575" y="1210.0852">Content-Type:&#160;application/json</text><text fill="#000000" font-family="monospace" font-size="13" lengthAdjust="spacing" textLength="8" x="575" y="1225.6852">{</text><text fill="#000000" font-family="monospace" font-size="13" lengthAdjust="spacing" textLength="184" x="591" y="1241.2852">"token_type":&#160;"Bearer",</text><text fill="#000000" font-family="monospace" font-size="13" lengthAdjust="spacing" textLength="312" x="591" y="1256.8852">"access_token":&#160;"jasfhasf123477234RAs",</text><text fill="#000000" font-family="monospace" font-size="13" lengthAdjust="spacing" textLength="152" x="591" y="1272.4852">"expires_in":&#160;3600,</text><text fill="#000000" font-family="monospace" font-size="13" lengthAdjust="spacing" textLength="264" x="591" y="1288.0852">"scope":&#160;"&#171;REQUESTED_LIST_HERE&#187;",</text><text fill="#000000" font-family="monospace" font-size="13" lengthAdjust="spacing" textLength="248" x="591" y="1303.6852">"refresh_token":&#160;"HSjafyy12344"</text><text fill="#000000" font-family="monospace" font-size="13" lengthAdjust="spacing" textLength="8" x="575" y="1319.2853">}</text><polygon fill="#181818" points="1159,1349.9801,1169,1353.9801,1159,1357.9801,1163,1353.9801" style="stroke:#181818;stroke-width:1.0;"/><line style="stroke:#181818;stroke-width:1.0;" x1="564" x2="1165" y1="1353.9801" y2="1353.9801"/><text fill="#000000" font-family="sans-serif" font-size="13" font-weight="bold" lengthAdjust="spacing" textLength="18" x="571" y="1348.9142">17</text><text fill="#000000" font-family="sans-serif" font-size="13" lengthAdjust="spacing" textLength="421" x="593" y="1348.9142">Gostaria de consumir os recursos protegidos. Eis o Access Token.</text><!--SRC=[dLRDRkCs4BxhAGOkiDWDLivliu0Hft0S9V4ssBYsivUsC1XfP3ChaGf9nKcBFapGGx67dle8Vh4EASkMOZTfguCjYlC_ttoauIP1wEHcAXN_XHak1NHbX72Mo1d4Ki6GYqc2VfzDI2xB4XuwAUrvB3IqtnYWbhaAqPSpWQe1J4EkKNaPKuQ7F6F2k0-T2TBRZnv0-vgMlblJogU7_XgD4oLdjD5eU3_Nb5cM5MhTX3zJ-SZksJ1KF3CsjZLDQHCRehf7LLYe9rhih7dZXMoPLobMSTlfzvmlZ-L6YZozeMsR8lZ7grHRS6ruGhv0OmwBvBnL9KYMCci1EMV0GjIQAQ0tL-Bv7_FVfMSpByNEaSHaqPpFg7ZCoT_Ra9RZ-yNotIQ5ATDJY3OhXbEM92WckDIiHD_eOuJKJWchTXN1AcGsBnkjmhkSQ-x2_KbOuKqb1Yx29ESYiZ8IwhxV0-fGPbBJYmcRNhr4bHQse2UeItMdDhKuoH_e1S6smxekgYUaGKWmfbpEb1J69vT2OBBQ01dNCF8DkykPw_1vC8AfCPbkRM-pQaQ-TgBDKARB3VoEq62rW1w5EgFnmB5vpB2zjMMJtTfwKv487Op7F6eV7NKlUy6dqRXtEhu81i7nyPkQfOWh3CquLxnT1eCFBCre7gbVBePIgAfeoubaVDYzwWV3yMLlEDfWNXjciCrkmWZfCxNbBaU8AHi5AUEQK2iCf-gwbaiGE9d_5NAvIgFMHN9tmpGU7kGgUQkdRE_RmsVWV5TtNrSVfqYrZDf3qYCX517OBdbUjJqBVBPergdA51w3F6LWC66s-ucSSB6SmnfmpgGIIAEiSsAda6g6We2aYznYPdEM2_sD3kqeEE0ALvMKVXpoSftFdnHV58aCq528sWm3fhQmsbX4ReojAqNCLLhGH4HvtJeilnXLpS1vpbIqv8PkMTADjLlCTa3zbPjeVqAa4RqsEefFfcvsLfEwcfoBqQY_lTlSXVsTFQfxBg95qozbSNAqu3KiLyUfU2nO267dmQTWq1a5f-FkrId1UKskWkaQYjPPzvKA44-9pLpcbLHPwy4_cIDEos4YAIx57KYDak7yoK-iXuoEppo5JcZ97qRo2uecT8ZRmEBb2GnBR-PVKx2oDVfkqeS-qjbqmzpK2Wkq-LT0SS-PXMLQaen6GhkfzlE4XL_-2nFshuR_WWgD3NxH3WAq8T_-Y0YmPQjTtXcs7_pPRERJhIBrYIPe1Ycf0XvESQBe02vvi-PgN6VHZN1uHd7_YprhZ6NfsThz70nwPxrWyCp1IpJ-4eNLXvybOPwi3wyzIy5TIzJwuKqHumrt87MyOmrhj02GaA9E7JLnCV-Jw9faoXDoBH8t21MyFSCY80mm9gQT5kkNKRGa1JiU6-XWRsS7hhv_5IAtMfOu-dKvtWq7BuUC1brCJf0fkYU-XvK0St6F2nYIo2tJCTryujsz_OCF7-XdqD4r1Np8gFDwpAtu_k7EJdNJ7Q3MpD7H8FZXEXXQZ5MEqPebLTHevVjYUClYnqVh-g1H2lvMWyJodiQ9lYliO0-OFAMUIssxd2jDBvaYdGdrMpTBdgaonjy0]--></g></svg>