<?xml version="1.0" encoding="us-ascii" standalone="no"?><svg xmlns="http://www.w3.org/2000/svg" xmlns:xlink="http://www.w3.org/1999/xlink" contentStyleType="text/css" height="1453px" preserveAspectRatio="none" style="width:1270px;height:1453px;background:#FFFFFF;" version="1.1" viewBox="0 0 1270 1453" width="1270px" zoomAndPan="magnify"><defs/><g><text fill="#000000" font-family="sans-serif" font-size="14" font-weight="bold" lengthAdjust="spacing" textLength="374" x="446.75" y="27.9951">Authorization Code Flow for Web Applications</text><line style="stroke:#181818;stroke-width:0.5;stroke-dasharray:5.0,5.0;" x1="66" x2="66" y1="118.5938" y2="1372.4473"/><line style="stroke:#181818;stroke-width:0.5;stroke-dasharray:5.0,5.0;" x1="224" x2="224" y1="118.5938" y2="1372.4473"/><line style="stroke:#181818;stroke-width:0.5;stroke-dasharray:5.0,5.0;" x1="564" x2="564" y1="118.5938" y2="1372.4473"/><line style="stroke:#181818;stroke-width:0.5;stroke-dasharray:5.0,5.0;" x1="918.5" x2="918.5" y1="118.5938" y2="1372.4473"/><line style="stroke:#181818;stroke-width:0.5;stroke-dasharray:5.0,5.0;" x1="1170.5" x2="1170.5" y1="118.5938" y2="1372.4473"/><text fill="#000000" font-family="sans-serif" font-size="14" lengthAdjust="spacing" textLength="116" x="5" y="115.292">Resource-owner</text><ellipse cx="66" cy="50.7969" fill="#E2E2F0" rx="8" ry="8" style="stroke:#181818;stroke-width:0.5;"/><path d="M66,58.7969 L66,85.7969 M53,66.7969 L79,66.7969 M66,85.7969 L53,100.7969 M66,85.7969 L79,100.7969 " fill="none" style="stroke:#181818;stroke-width:0.5;"/><text fill="#000000" font-family="sans-serif" font-size="14" lengthAdjust="spacing" textLength="116" x="5" y="1384.4424">Resource-owner</text><ellipse cx="66" cy="1396.2441" fill="#E2E2F0" rx="8" ry="8" style="stroke:#181818;stroke-width:0.5;"/><path d="M66,1404.2441 L66,1431.2441 M53,1412.2441 L79,1412.2441 M66,1431.2441 L53,1446.2441 M66,1431.2441 L79,1446.2441 " fill="none" style="stroke:#181818;stroke-width:0.5;"/><rect fill="#E2E2F0" height="61.7531" rx="2.5" ry="2.5" style="stroke:#181818;stroke-width:0.5;" width="132" x="158" y="55.8407"/><text fill="#000000" font-family="sans-serif" font-size="18" font-weight="bold" lengthAdjust="spacing" textLength="118" x="165" y="79.5487">User-Agent</text><line style="stroke:#181818;stroke-width:1.0;" x1="158" x2="290" y1="88.7938" y2="88.7938"/><text fill="#000000" font-family="monospace" font-size="14" lengthAdjust="spacing" textLength="56" x="196" y="106.7578">Browser</text><rect fill="#E2E2F0" height="61.7531" rx="2.5" ry="2.5" style="stroke:#181818;stroke-width:0.5;" width="132" x="158" y="1371.4473"/><text fill="#000000" font-family="sans-serif" font-size="18" font-weight="bold" lengthAdjust="spacing" textLength="118" x="165" y="1395.1553">User-Agent</text><line style="stroke:#181818;stroke-width:1.0;" x1="158" x2="290" y1="1404.4004" y2="1404.4004"/><text fill="#000000" font-family="monospace" font-size="14" lengthAdjust="spacing" textLength="56" x="196" y="1422.3643">Browser</text><rect fill="#E2E2F0" height="61.7531" rx="2.5" ry="2.5" style="stroke:#181818;stroke-width:0.5;" width="150" x="489" y="55.8407"/><text fill="#000000" font-family="sans-serif" font-size="18" font-weight="bold" lengthAdjust="spacing" textLength="62" x="533" y="79.5487">Client</text><line style="stroke:#181818;stroke-width:1.0;" x1="489" x2="639" y1="88.7938" y2="88.7938"/><text fill="#000000" font-family="monospace" font-size="14" lengthAdjust="spacing" textLength="136" x="496" y="106.7578">App&#160;on&#160;Web&#160;Server</text><rect fill="#E2E2F0" height="61.7531" rx="2.5" ry="2.5" style="stroke:#181818;stroke-width:0.5;" width="150" x="489" y="1371.4473"/><text fill="#000000" font-family="sans-serif" font-size="18" font-weight="bold" lengthAdjust="spacing" textLength="62" x="533" y="1395.1553">Client</text><line style="stroke:#181818;stroke-width:1.0;" x1="489" x2="639" y1="1404.4004" y2="1404.4004"/><text fill="#000000" font-family="monospace" font-size="14" lengthAdjust="spacing" textLength="136" x="496" y="1422.3643">App&#160;on&#160;Web&#160;Server</text><rect fill="#E2E2F0" height="34.9531" rx="2.5" ry="2.5" style="stroke:#181818;stroke-width:0.5;" width="235" x="801.5" y="82.6406"/><text fill="#000000" font-family="sans-serif" font-size="18" font-weight="bold" lengthAdjust="spacing" textLength="221" x="808.5" y="106.3486">Authorization Server</text><rect fill="#E2E2F0" height="34.9531" rx="2.5" ry="2.5" style="stroke:#181818;stroke-width:0.5;" width="235" x="801.5" y="1371.4473"/><text fill="#000000" font-family="sans-serif" font-size="18" font-weight="bold" lengthAdjust="spacing" textLength="221" x="808.5" y="1395.1553">Authorization Server</text><rect fill="#E2E2F0" height="61.7531" rx="2.5" ry="2.5" style="stroke:#181818;stroke-width:0.5;" width="185" x="1078.5" y="55.8407"/><text fill="#000000" font-family="sans-serif" font-size="18" font-weight="bold" lengthAdjust="spacing" textLength="171" x="1085.5" y="79.5487">Resource Server</text><line style="stroke:#181818;stroke-width:1.0;" x1="1078.5" x2="1263.5" y1="88.7938" y2="88.7938"/><text fill="#000000" font-family="monospace" font-size="14" lengthAdjust="spacing" textLength="24" x="1159" y="106.7578">API</text><rect fill="#E2E2F0" height="61.7531" rx="2.5" ry="2.5" style="stroke:#181818;stroke-width:0.5;" width="185" x="1078.5" y="1371.4473"/><text fill="#000000" font-family="sans-serif" font-size="18" font-weight="bold" lengthAdjust="spacing" textLength="171" x="1085.5" y="1395.1553">Resource Server</text><line style="stroke:#181818;stroke-width:1.0;" x1="1078.5" x2="1263.5" y1="1404.4004" y2="1404.4004"/><text fill="#000000" font-family="monospace" font-size="14" lengthAdjust="spacing" textLength="24" x="1159" y="1422.3643">API</text><polygon fill="#181818" points="212,145.7266,222,149.7266,212,153.7266,216,149.7266" style="stroke:#181818;stroke-width:1.0;"/><line style="stroke:#181818;stroke-width:1.0;" x1="66" x2="218" y1="149.7266" y2="149.7266"/><text fill="#000000" font-family="sans-serif" font-size="13" font-weight="bold" lengthAdjust="spacing" textLength="9" x="73" y="144.6606">1</text><text fill="#000000" font-family="sans-serif" font-size="13" lengthAdjust="spacing" textLength="121" x="86" y="144.6606">Utiliza seu Browser</text><polygon fill="#181818" points="552,174.8594,562,178.8594,552,182.8594,556,178.8594" style="stroke:#181818;stroke-width:1.0;"/><line style="stroke:#181818;stroke-width:1.0;" x1="224" x2="558" y1="178.8594" y2="178.8594"/><text fill="#000000" font-family="sans-serif" font-size="13" font-weight="bold" lengthAdjust="spacing" textLength="9" x="231" y="173.7935">2</text><text fill="#000000" font-family="sans-serif" font-size="13" lengthAdjust="spacing" textLength="159" x="244" y="173.7935">para acessar a aplica&#231;&#227;o</text><line style="stroke:#181818;stroke-width:1.0;" x1="564" x2="606" y1="207.9922" y2="207.9922"/><line style="stroke:#181818;stroke-width:1.0;" x1="606" x2="606" y1="207.9922" y2="220.9922"/><line style="stroke:#181818;stroke-width:1.0;" x1="565" x2="606" y1="220.9922" y2="220.9922"/><polygon fill="#181818" points="575,216.9922,565,220.9922,575,224.9922,571,220.9922" style="stroke:#181818;stroke-width:1.0;"/><text fill="#000000" font-family="sans-serif" font-size="13" font-weight="bold" lengthAdjust="spacing" textLength="8" x="571" y="202.9263">3</text><text fill="#000000" font-family="sans-serif" font-size="13" lengthAdjust="spacing" textLength="227" x="583" y="202.9263">Gera o Code Verifier (code_verifier)</text><line style="stroke:#181818;stroke-width:1.0;" x1="564" x2="606" y1="250.125" y2="250.125"/><line style="stroke:#181818;stroke-width:1.0;" x1="606" x2="606" y1="250.125" y2="263.125"/><line style="stroke:#181818;stroke-width:1.0;" x1="565" x2="606" y1="263.125" y2="263.125"/><polygon fill="#181818" points="575,259.125,565,263.125,575,267.125,571,263.125" style="stroke:#181818;stroke-width:1.0;"/><text fill="#000000" font-family="sans-serif" font-size="13" font-weight="bold" lengthAdjust="spacing" textLength="9" x="571" y="245.0591">4</text><text fill="#000000" font-family="sans-serif" font-size="13" lengthAdjust="spacing" textLength="298" x="584" y="245.0591">Gera o hash do Code Verifier (code_challenge)</text><polygon fill="#181818" points="235,318.5234,225,322.5234,235,326.5234,231,322.5234" style="stroke:#181818;stroke-width:1.0;"/><line style="stroke:#181818;stroke-width:1.0;" x1="229" x2="563" y1="322.5234" y2="322.5234"/><text fill="#000000" font-family="sans-serif" font-size="13" font-weight="bold" lengthAdjust="spacing" textLength="9" x="241" y="302.3247">5</text><text fill="#000000" font-family="sans-serif" font-size="13" lengthAdjust="spacing" textLength="303" x="254" y="287.1919">"Pede" ao User-Agent para realizar a requisi&#231;&#227;o</text><text fill="#000000" font-family="sans-serif" font-size="13" lengthAdjust="spacing" textLength="211" x="258" y="302.3247">ao Authorization Server incluindo</text><text fill="#000000" font-family="sans-serif" font-size="13" lengthAdjust="spacing" textLength="204" x="258" y="317.4575">o code_challenge, escopos, etc.</text><polygon fill="#181818" points="907,350.6563,917,354.6563,907,358.6563,911,354.6563" style="stroke:#181818;stroke-width:1.0;"/><line style="stroke:#181818;stroke-width:1.0;" x1="224" x2="913" y1="354.6563" y2="354.6563"/><text fill="#000000" font-family="sans-serif" font-size="13" font-weight="bold" lengthAdjust="spacing" textLength="9" x="231" y="349.5903">6</text><text fill="#000000" font-family="sans-serif" font-size="13" lengthAdjust="spacing" textLength="256" x="244" y="349.5903">Inicia requisi&#231;&#227;o do fluxo de autoriza&#231;&#227;o</text><path d="M110,335.5234 L110,360.5234 L219,360.5234 L219,345.5234 L209,335.5234 L110,335.5234 " fill="#FEFFDD" style="stroke:#181818;stroke-width:0.5;"/><path d="M209,335.5234 L209,345.5234 L219,345.5234 L209,335.5234 " fill="#FEFFDD" style="stroke:#181818;stroke-width:0.5;"/><text fill="#000000" font-family="sans-serif" font-size="13" lengthAdjust="spacing" textLength="88" x="116" y="352.5903">Front-channel</text><path d="M461,370.6563 L461,504.6563 L914,504.6563 L914,380.6563 L904,370.6563 L461,370.6563 " fill="#00FFFF" style="stroke:#181818;stroke-width:0.5;"/><path d="M904,370.6563 L904,380.6563 L914,380.6563 L904,370.6563 " fill="#00FFFF" style="stroke:#181818;stroke-width:0.5;"/><text fill="#000000" font-family="monospace" font-size="13" lengthAdjust="spacing" textLength="376" x="467" y="387.6943">GET&#160;https://authorization-server.com/authorize?</text><text fill="#000000" font-family="monospace" font-size="13" lengthAdjust="spacing" textLength="112" x="499" y="403.2943">response_type=</text><text fill="#000000" font-family="monospace" font-size="13" font-weight="bold" lengthAdjust="spacing" textLength="32" x="611" y="403.2423">code</text><text fill="#000000" font-family="monospace" font-size="13" lengthAdjust="spacing" textLength="8" x="643" y="403.2943">&amp;</text><text fill="#000000" font-family="monospace" font-size="13" lengthAdjust="spacing" textLength="216" x="499" y="418.8943">client_id=&#171;CLIENT_ID_HERE&#187;&amp;</text><text fill="#000000" font-family="monospace" font-size="13" lengthAdjust="spacing" textLength="368" x="499" y="434.4943">redirect_uri=https://example-app.com/redirect&amp;</text><text fill="#000000" font-family="monospace" font-size="13" lengthAdjust="spacing" textLength="200" x="499" y="450.0943">scope=&#171;SCOPES_LIST_HERE&#187;&amp;</text><text fill="#000000" font-family="monospace" font-size="13" lengthAdjust="spacing" textLength="96" x="499" y="465.6943">state=abcde&amp;</text><text fill="#000000" font-family="sans-serif" font-size="13" lengthAdjust="spacing" textLength="253" x="599" y="466.1904">o que fizer mais sentido para o neg&#243;cio</text><text fill="#000000" font-family="monospace" font-size="13" lengthAdjust="spacing" textLength="400" x="499" y="481.2943">code_challenge=&#171;base64url(sha256(code_verifier))&#187;&amp;</text><text fill="#000000" font-family="monospace" font-size="13" lengthAdjust="spacing" textLength="208" x="499" y="496.8944">code_challenge_method=S256</text><polygon fill="#181818" points="77,527.5892,67,531.5892,77,535.5892,73,531.5892" style="stroke:#181818;stroke-width:1.0;"/><line style="stroke:#181818;stroke-width:1.0;" x1="71" x2="918" y1="531.5892" y2="531.5892"/><text fill="#000000" font-family="sans-serif" font-size="13" font-weight="bold" lengthAdjust="spacing" textLength="9" x="83" y="526.5233">7</text><text fill="#000000" font-family="sans-serif" font-size="13" lengthAdjust="spacing" textLength="181" x="96" y="526.5233">Apresenta uma tela de login</text><polygon fill="#181818" points="907,556.722,917,560.722,907,564.722,911,560.722" style="stroke:#181818;stroke-width:1.0;"/><line style="stroke:#181818;stroke-width:1.0;" x1="66" x2="913" y1="560.722" y2="560.722"/><text fill="#000000" font-family="sans-serif" font-size="13" font-weight="bold" lengthAdjust="spacing" textLength="9" x="73" y="555.6561">8</text><text fill="#000000" font-family="sans-serif" font-size="13" lengthAdjust="spacing" textLength="274" x="86" y="555.6561">Fornece suas credencias para fazer o login</text><polygon fill="#181818" points="77,585.8548,67,589.8548,77,593.8548,73,589.8548" style="stroke:#181818;stroke-width:1.0;"/><line style="stroke:#181818;stroke-width:1.0;" x1="71" x2="918" y1="589.8548" y2="589.8548"/><text fill="#000000" font-family="sans-serif" font-size="13" font-weight="bold" lengthAdjust="spacing" textLength="9" x="83" y="584.7889">9</text><text fill="#000000" font-family="sans-serif" font-size="13" lengthAdjust="spacing" textLength="449" x="96" y="584.7889">Pede o consentimento do usu&#225;rio para logar na aplica&#231;&#227;o em quest&#227;o</text><polygon fill="#181818" points="907,614.9876,917,618.9876,907,622.9876,911,618.9876" style="stroke:#181818;stroke-width:1.0;"/><line style="stroke:#181818;stroke-width:1.0;" x1="66" x2="913" y1="618.9876" y2="618.9876"/><text fill="#000000" font-family="sans-serif" font-size="13" font-weight="bold" lengthAdjust="spacing" textLength="19" x="73" y="613.9217">10</text><text fill="#000000" font-family="sans-serif" font-size="13" lengthAdjust="spacing" textLength="235" x="96" y="613.9217">Confirma seu desejo de fazer o login</text><line style="stroke:#181818;stroke-width:1.0;" x1="919" x2="961" y1="648.1204" y2="648.1204"/><line style="stroke:#181818;stroke-width:1.0;" x1="961" x2="961" y1="648.1204" y2="661.1204"/><line style="stroke:#181818;stroke-width:1.0;" x1="920" x2="961" y1="661.1204" y2="661.1204"/><polygon fill="#181818" points="930,657.1204,920,661.1204,930,665.1204,926,661.1204" style="stroke:#181818;stroke-width:1.0;"/><text fill="#000000" font-family="sans-serif" font-size="13" font-weight="bold" lengthAdjust="spacing" textLength="18" x="926" y="643.0545">11</text><text fill="#000000" font-family="sans-serif" font-size="13" lengthAdjust="spacing" textLength="163" x="948" y="643.0545">Guarda o Code Challenge</text><polygon fill="#181818" points="235,689.2532,225,693.2532,235,697.2532,231,693.2532" style="stroke:#181818;stroke-width:1.0;"/><line style="stroke:#181818;stroke-width:1.0;" x1="229" x2="918" y1="693.2532" y2="693.2532"/><text fill="#000000" font-family="sans-serif" font-size="13" font-weight="bold" lengthAdjust="spacing" textLength="18" x="241" y="688.1873">12</text><text fill="#000000" font-family="sans-serif" font-size="13" lengthAdjust="spacing" textLength="205" x="263" y="688.1873">Eis o Authorization Code gerado</text><path d="M110,674.1204 L110,699.1204 L219,699.1204 L219,684.1204 L209,674.1204 L110,674.1204 " fill="#FEFFDD" style="stroke:#181818;stroke-width:0.5;"/><path d="M209,674.1204 L209,684.1204 L219,684.1204 L209,674.1204 " fill="#FEFFDD" style="stroke:#181818;stroke-width:0.5;"/><text fill="#000000" font-family="sans-serif" font-size="13" lengthAdjust="spacing" textLength="88" x="116" y="691.1873">Front-channel</text><path d="M229,709.2532 L229,781.2532 L594,781.2532 L594,719.2532 L584,709.2532 L229,709.2532 " fill="#00FFFF" style="stroke:#181818;stroke-width:0.5;"/><path d="M584,709.2532 L584,719.2532 L594,719.2532 L584,709.2532 " fill="#00FFFF" style="stroke:#181818;stroke-width:0.5;"/><text fill="#000000" font-family="monospace" font-size="13" lengthAdjust="spacing" textLength="144" x="235" y="726.2912">HTTP/1.1&#160;302&#160;Found</text><text fill="#000000" font-family="monospace" font-size="13" lengthAdjust="spacing" textLength="344" x="235" y="741.8913">Location:&#160;https://example-app.com/redirect?</text><text fill="#000000" font-family="monospace" font-size="13" lengthAdjust="spacing" textLength="168" x="315" y="757.4913">code=&#171;GENERATED_CODE&#187;</text><text fill="#000000" font-family="monospace" font-size="13" lengthAdjust="spacing" textLength="88" x="315" y="773.0913">state=abcde</text><polygon fill="#181818" points="552,818.9189,562,822.9189,552,826.9189,556,822.9189" style="stroke:#181818;stroke-width:1.0;"/><line style="stroke:#181818;stroke-width:1.0;" x1="224" x2="558" y1="822.9189" y2="822.9189"/><text fill="#000000" font-family="sans-serif" font-size="13" font-weight="bold" lengthAdjust="spacing" textLength="17" x="231" y="810.2866">13</text><text fill="#000000" font-family="sans-serif" font-size="13" lengthAdjust="spacing" textLength="205" x="252" y="802.7202">Eis o Authorization Code gerado</text><text fill="#000000" font-family="sans-serif" font-size="13" lengthAdjust="spacing" textLength="151" x="256" y="817.853">no Authorization Server</text><polygon fill="#181818" points="907,878.3174,917,882.3174,907,886.3174,911,882.3174" style="stroke:#181818;stroke-width:1.0;"/><line style="stroke:#181818;stroke-width:1.0;" x1="564" x2="913" y1="882.3174" y2="882.3174"/><text fill="#000000" font-family="sans-serif" font-size="13" font-weight="bold" lengthAdjust="spacing" textLength="18" x="571" y="862.1186">14</text><text fill="#000000" font-family="sans-serif" font-size="13" lengthAdjust="spacing" textLength="309" x="593" y="846.9858">Eis o Authorization Code, eu gostaria de troc&#225;-lo</text><text fill="#000000" font-family="sans-serif" font-size="13" lengthAdjust="spacing" textLength="277" x="597" y="862.1186">por um Access Token. Aqui est&#225; tamb&#233;m o</text><text fill="#000000" font-family="sans-serif" font-size="13" lengthAdjust="spacing" textLength="87" x="597" y="877.2514">Code Verifier.</text><path d="M453,848.0517 L453,873.0517 L559,873.0517 L559,858.0517 L549,848.0517 L453,848.0517 " fill="#FEFFDD" style="stroke:#181818;stroke-width:0.5;"/><path d="M549,848.0517 L549,858.0517 L559,858.0517 L549,848.0517 " fill="#FEFFDD" style="stroke:#181818;stroke-width:0.5;"/><text fill="#000000" font-family="sans-serif" font-size="13" lengthAdjust="spacing" textLength="85" x="459" y="865.1186">Back-channel</text><path d="M517,895.3174 L517,1044.3174 L914,1044.3174 L914,905.3174 L904,895.3174 L517,895.3174 " fill="#00FFFF" style="stroke:#181818;stroke-width:0.5;"/><path d="M904,895.3174 L904,905.3174 L914,905.3174 L904,895.3174 " fill="#00FFFF" style="stroke:#181818;stroke-width:0.5;"/><text fill="#000000" font-family="monospace" font-size="13" lengthAdjust="spacing" textLength="344" x="523" y="912.3554">POST&#160;https://authorization-server.com/token</text><text fill="#000000" font-family="monospace" font-size="13" lengthAdjust="spacing" textLength="376" x="523" y="927.9554">Content-Type:&#160;application/x-www-form-urlencoded</text><text fill="#000000" font-family="sans-serif" font-size="13" lengthAdjust="spacing" textLength="4" x="523" y="943.5843">&#160;</text><text fill="#000000" font-family="monospace" font-size="13" lengthAdjust="spacing" textLength="88" x="523" y="958.6882">grant_type=</text><text fill="#000000" font-family="monospace" font-size="13" font-weight="bold" lengthAdjust="spacing" textLength="144" x="611" y="958.6362">authorization_code</text><text fill="#000000" font-family="monospace" font-size="13" lengthAdjust="spacing" textLength="8" x="755" y="958.6882">&amp;</text><text fill="#000000" font-family="monospace" font-size="13" lengthAdjust="spacing" textLength="216" x="523" y="974.2882">code=&#171;GENERATED_CODE_HERE&#187;&amp;</text><text fill="#000000" font-family="monospace" font-size="13" lengthAdjust="spacing" textLength="368" x="523" y="989.8882">redirect_uri=https://example-app.com/redirect&amp;</text><text fill="#000000" font-family="monospace" font-size="13" lengthAdjust="spacing" textLength="280" x="523" y="1005.4882">code_verifier=&#171;CODE_VERIFIER_HERE&#187;&amp;</text><text fill="#000000" font-family="monospace" font-size="13" lengthAdjust="spacing" textLength="208" x="523" y="1021.0883">client_id=&#171;CLIENT_ID_HERE&#187;</text><text fill="#000000" font-family="monospace" font-size="13" lengthAdjust="spacing" textLength="272" x="523" y="1036.6883">client_secret=&#171;CLIENT_SECRET_HERE&#187;</text><line style="stroke:#181818;stroke-width:1.0;" x1="919" x2="961" y1="1116.7815" y2="1116.7815"/><line style="stroke:#181818;stroke-width:1.0;" x1="961" x2="961" y1="1116.7815" y2="1129.7815"/><line style="stroke:#181818;stroke-width:1.0;" x1="920" x2="961" y1="1129.7815" y2="1129.7815"/><polygon fill="#181818" points="930,1125.7815,920,1129.7815,930,1133.7815,926,1129.7815" style="stroke:#181818;stroke-width:1.0;"/><text fill="#000000" font-family="sans-serif" font-size="13" font-weight="bold" lengthAdjust="spacing" textLength="18" x="926" y="1089.0164">15</text><text fill="#000000" font-family="sans-serif" font-size="13" lengthAdjust="spacing" textLength="162" x="948" y="1066.3172">Calcula o Code Challenge</text><text fill="#000000" font-family="sans-serif" font-size="13" lengthAdjust="spacing" textLength="212" x="952" y="1081.45">a partir do Code Verifier recebido</text><text fill="#000000" font-family="sans-serif" font-size="13" lengthAdjust="spacing" textLength="206" x="952" y="1096.5828">para ver se &#233; o mesmo do in&#237;cio</text><text fill="#000000" font-family="sans-serif" font-size="13" lengthAdjust="spacing" textLength="52" x="952" y="1111.7156">do fluxo</text><polygon fill="#181818" points="575,1157.9143,565,1161.9143,575,1165.9143,571,1161.9143" style="stroke:#181818;stroke-width:1.0;"/><line style="stroke:#181818;stroke-width:1.0;" x1="569" x2="918" y1="1161.9143" y2="1161.9143"/><text fill="#000000" font-family="sans-serif" font-size="13" font-weight="bold" lengthAdjust="spacing" textLength="18" x="581" y="1156.8484">16</text><text fill="#000000" font-family="sans-serif" font-size="13" lengthAdjust="spacing" textLength="286" x="603" y="1156.8484">Aqui est&#225; um Access Token e Refresh Token</text><path d="M453,1142.7815 L453,1167.7815 L559,1167.7815 L559,1152.7815 L549,1142.7815 L453,1142.7815 " fill="#FEFFDD" style="stroke:#181818;stroke-width:0.5;"/><path d="M549,1142.7815 L549,1152.7815 L559,1152.7815 L549,1142.7815 " fill="#FEFFDD" style="stroke:#181818;stroke-width:0.5;"/><text fill="#000000" font-family="sans-serif" font-size="13" lengthAdjust="spacing" textLength="85" x="459" y="1159.8484">Back-channel</text><path d="M569,1177.9143 L569,1327.9143 L926,1327.9143 L926,1187.9143 L916,1177.9143 L569,1177.9143 " fill="#00FFFF" style="stroke:#181818;stroke-width:0.5;"/><path d="M916,1177.9143 L916,1187.9143 L926,1187.9143 L916,1177.9143 " fill="#00FFFF" style="stroke:#181818;stroke-width:0.5;"/><text fill="#000000" font-family="monospace" font-size="13" lengthAdjust="spacing" textLength="120" x="575" y="1194.9523">HTTP/1.1&#160;200&#160;OK</text><text fill="#000000" font-family="monospace" font-size="13" lengthAdjust="spacing" textLength="240" x="575" y="1210.5524">Content-Type:&#160;application/json</text><text fill="#000000" font-family="monospace" font-size="13" lengthAdjust="spacing" textLength="8" x="575" y="1226.1524">{</text><text fill="#000000" font-family="monospace" font-size="13" lengthAdjust="spacing" textLength="184" x="591" y="1241.7524">"token_type":&#160;"Bearer",</text><text fill="#000000" font-family="monospace" font-size="13" lengthAdjust="spacing" textLength="312" x="591" y="1257.3524">"access_token":&#160;"jasfhasf123477234RAs",</text><text fill="#000000" font-family="monospace" font-size="13" lengthAdjust="spacing" textLength="152" x="591" y="1272.9524">"expires_in":&#160;3600,</text><text fill="#000000" font-family="monospace" font-size="13" lengthAdjust="spacing" textLength="264" x="591" y="1288.5524">"scope":&#160;"&#171;REQUESTED_LIST_HERE&#187;",</text><text fill="#000000" font-family="monospace" font-size="13" lengthAdjust="spacing" textLength="248" x="591" y="1304.1524">"refresh_token":&#160;"HSjafyy12344"</text><text fill="#000000" font-family="monospace" font-size="13" lengthAdjust="spacing" textLength="8" x="575" y="1319.7525">}</text><polygon fill="#181818" points="1159,1350.4473,1169,1354.4473,1159,1358.4473,1163,1354.4473" style="stroke:#181818;stroke-width:1.0;"/><line style="stroke:#181818;stroke-width:1.0;" x1="564" x2="1165" y1="1354.4473" y2="1354.4473"/><text fill="#000000" font-family="sans-serif" font-size="13" font-weight="bold" lengthAdjust="spacing" textLength="18" x="571" y="1349.3814">17</text><text fill="#000000" font-family="sans-serif" font-size="13" lengthAdjust="spacing" textLength="421" x="593" y="1349.3814">Gostaria de consumir os recursos protegidos. Eis o Access Token.</text><!--SRC=[dLRTJkD65BxtKnobqceNRG8Bb9KYGXM2WQXeeKdONhILDTZ7oR3sZ9aPRw1L7mRrejgBNlKHyc8zCuuJctYXhIyIZ-Vyd-zyCuQR1A6VcvbK_5Tck1Gma172QIBd44i5F-8DzBCiuQ7RrPx7GaFVMoFKCbSXjkLSe6e1qv1hL5x6bE4XpvWmxaD_YlJsamVGkwPbswrfrQQ7_bgjOoNdjD5gUR_Kb5cM5Mg3X3zHeO208hMnZL5zRb2MDgTYhp1Ipx7OsN382zaojLAiwlbgw7nvB3TIvEaDRTiieNsqphOBruOdv0iqvh3CpriNWsGfkIwGSmOiHAsP0dfpLLxykVX3UZRvKkmCIKmMVVc8YiUS_BqEQHbyNYxVD2dCc9v1rAmOpbYIe9ZYIhCIVUiA8wIEIbXth0XM8RDvsMWLtkLSSnVkpy8ADvKOk0YJd8l8oaYe-tuBg4EPIKql9knuzH9LMjY5eQ0krPtQrE8alwSN1DiEwxgedf068S6OSZbLKfWskHG2a_K6oBY6aM_ONSvSXy_y2SoCoNHtUvjLCsfh9ze9PRhQmEy83LOBw56eCveG3Cn3XhsjBPlirjQhYaJea1pmg7TuEBWO-XycmV0aEFT7_j7HgvgbY2iCJP0htYk3mNkMPWcsgLykXbAegcZBYMHyFBYyyiV1nN0yQJ2l3JFOOpTXXFIPsdAN8yIKZOAKSKse5OPJTLtB9GYSBluEkLodKUiYkRjX6W_sSvMyrZEs- -t14t2-gRklgmSfKYsZtfZqI0X51BPBdbTjpnAVNQ8YgZA5no1F6HXCcEr-8gTShEQm1fnJgGJIAEkS22gacg4W8EaYjvZPdELIlz6X7GK7NE6gajAFGrwkyyMZuiiYaG4Q2b6ROS3K5bORYyZ6s0PIn5ob1Kr4bDUjm_ApKTKCdELCHIjk69GbRQpTShPzwgziOlmfaKRqqkWeFfsvsLbFwdfopYUJg-rtdNUmjxDBTSz5j6pwXImEZowyXENgE1MF1GiXxCp_u8_w4_ya65oU49mtv2gOhg5eatLVg03nb6ZcCg-aobeFlcQEE2s7gQIu57SWDKg6YyTsOZraT8BcAVH3I_umaPzGTA1Ft0OMBuzWM7gp-9A2bQtHTwVQe6CMVlelr7PrEVuNt6PiDClw4a8DrQuz8KRhslALzu3j-_PyFc_J3I5jqzpJK56KHR-TubJHYLeIOSrLKAV5nlu-uQp_HOSr2h9yQ-r-z4V3qw4_UkBWELwkYsWa3Z5hiR4_6FcJjUXNwQi- -2m9ysHpSEqv2kvAeZOFRaeERxW3gECSQrWZBBwGcHHrwcY9YyLVHDKaKvwE6v6u8QXWxGaE0M64CR7ih5W_3xWL8TZHQA22tPqTkFp-HJJTQbb2xhVLQBSS4Xs8MdGfEKQcwARt5jO2pCKT58WbaLkcOxhrnEzsz_RVlwUVKL_N5F0-8v3eW5lnlOETdUgcEpojcSF3aV_3jJ-sSAmSeJLBggZHslVv-9R53m_MzNwh5Foz1edL7OqJTLUOmHukUKezbzfsELUQNZ95EbFgj-wK75DbYty0]--></g></svg>